<?xml version="1.0" encoding="UTF-8" standalone="no"?>
<svg
   xmlns:dc="http://purl.org/dc/elements/1.1/"
   xmlns:cc="http://creativecommons.org/ns#"
   xmlns:rdf="http://www.w3.org/1999/02/22-rdf-syntax-ns#"
   xmlns:svg="http://www.w3.org/2000/svg"
   xmlns="http://www.w3.org/2000/svg"
   xmlns:sodipodi="http://sodipodi.sourceforge.net/DTD/sodipodi-0.dtd"
   xmlns:inkscape="http://www.inkscape.org/namespaces/inkscape"
   viewBox="0 0 104.00922 79.936676"
   version="1.1"
   id="svg31"
   sodipodi:docname="game-controller.svg"
   width="104.00922"
   height="79.936676"
   inkscape:version="0.92.3 (2405546, 2018-03-11)">
  <metadata
     id="metadata35">
    <rdf:RDF>
      <cc:Work
         rdf:about="">
        <dc:format>image/svg+xml</dc:format>
        <dc:type
           rdf:resource="http://purl.org/dc/dcmitype/StillImage" />
      </cc:Work>
    </rdf:RDF>
  </metadata>
  <sodipodi:namedview
     pagecolor="#ffffff"
     bordercolor="#666666"
     borderopacity="1"
     objecttolerance="10"
     gridtolerance="10"
     guidetolerance="10"
     inkscape:pageopacity="0"
     inkscape:pageshadow="2"
     inkscape:window-width="640"
     inkscape:window-height="480"
     id="namedview33"
     showgrid="false"
     inkscape:zoom="1.84375"
     inkscape:cx="-57.283526"
     inkscape:cy="40"
     inkscape:current-layer="svg31" />
  <defs
     id="defs4">
    <style
       id="style2">.cls-1{isolation:isolate;}.cls-2{mix-blend-mode:multiply;}.cls-3{fill:#d4dfea;}.cls-4{fill:#093357;}.cls-5{fill:#7569b0;}.cls-6{fill:#e05951;}.cls-7{fill:#e2bc00;}.cls-8{fill:#489de3;}.cls-9{fill:#52ae49;}</style>
  </defs>
  <title
     id="title6">game-controller</title>
  <g
     class="cls-1"
     id="g29"
     style="isolation:isolate"
     transform="translate(-11.995391,-24.063321)">
    <g
       id="icons"
       class="cls-2"
       style="mix-blend-mode:multiply">
      <path
         class="cls-3"
         d="M 92,56 H 36 A 24,24 0 1 0 56.78,92 H 71.22 A 24,24 0 1 0 92,56 Z"
         id="path8"
         inkscape:connector-curvature="0"
         style="fill:#d4dfea" />
      <path
         class="cls-4"
         d="m 57,84 a 2,2 0 0 1 -1.41,-3.41 l 4,-4 a 2.0011122,2.0011122 0 0 1 2.83,2.83 l -4,4 A 2,2 0 0 1 57,84 Z"
         id="path10"
         inkscape:connector-curvature="0"
         style="fill:#093357" />
      <path
         class="cls-4"
         d="m 67,84 a 2,2 0 0 1 -1.41,-3.41 l 4,-4 a 2.0011122,2.0011122 0 0 1 2.83,2.83 l -4,4 A 2,2 0 0 1 67,84 Z"
         id="path12"
         inkscape:connector-curvature="0"
         style="fill:#093357" />
      <rect
         class="cls-5"
         x="32"
         y="69"
         width="8"
         height="20"
         rx="2"
         ry="2"
         id="rect14"
         style="fill:#7569b0" />
      <rect
         class="cls-5"
         x="32"
         y="69"
         width="8"
         height="20"
         rx="2"
         ry="2"
         transform="rotate(90,36,79)"
         id="rect16"
         style="fill:#7569b0" />
      <circle
         class="cls-6"
         cx="100"
         cy="79"
         r="4"
         id="circle18"
         style="fill:#e05951" />
      <circle
         class="cls-7"
         cx="92"
         cy="87"
         r="4"
         id="circle20"
         style="fill:#e2bc00" />
      <circle
         class="cls-8"
         cx="92"
         cy="71"
         r="4"
         id="circle22"
         style="fill:#489de3" />
      <circle
         class="cls-9"
         cx="84"
         cy="79"
         r="4"
         id="circle24"
         style="fill:#52ae49" />
      <path
         class="cls-4"
         d="m 79.86,25.26 a 2,2 0 0 0 -3.71,1.49 c 3.14,7.84 -0.18,9.45 -5.66,12.1 C 65.24,41.39 58.25,44.78 61,56 h 4.14 c -2.58,-8.84 1.74,-10.95 7.11,-13.55 5.37,-2.6 12.13,-5.89 7.61,-17.19 z"
         id="path26"
         inkscape:connector-curvature="0"
         style="fill:#093357" />
    </g>
  </g>
</svg>
